<svg width="243" height="483" xmlns="http://www.w3.org/2000/svg">
	<defs>
		<marker id="markerArrow" markerWidth="13" markerHeight="13" refX="2" refY="6" orient="auto">
			<path d="M2,2 L2,11 L10,6 L2,2" style="fill: rgb(0, 158, 115);" />
		</marker>
	</defs>
	
	<!--Flip coordinate grid so origin is in bottom-left corner-->
	<g transform="translate(0, 483)">
		<g transform="scale(1, -1)">
			<!--Court-->
			<rect width="243" height="483" style="fill: rgb(255, 255, 255); stroke-width: 1.5; stroke: rgb(0, 0, 0);" />
			
			<!--Receiving Line-->
			<line x1="1.5" y1="181.5" x2="22.5" y2="181.5" style="stroke: rgb(213, 94, 0); stroke-width: 1.5;" />
			<line x1="220.5" y1="181.5" x2="241.5" y2="181.5" style="stroke: rgb(213, 94, 0); stroke-width: 1.5;" />
			<line x1="28.5" y1="181.5" x2="220.5" y2="181.5" style="stroke: rgb(213, 94, 0); stroke-width: 1.5;" stroke-dasharray="6" />
			
			<!--Short Line-->
			<line x1="1.5" y1="241.5" x2="241.5" y2="241.5" style="stroke: rgb(213, 94, 0); stroke-width: 1.5;" />
			
			<!--Service Line-->
			<line x1="1.5" y1="301.5" x2="241.5" y2="301.5" style="stroke: rgb(213, 94, 0); stroke-width: 1.5;" />
			
			<!--Service Box Lines-->
			<line x1="19.5" y1="241.5" x2="19.5" y2="301.5" style="stroke: rgb(213, 94, 0); stroke-width: 1.5;" />
			<line x1="223.5" y1="241.5" x2="223.5" y2="301.5" style="stroke: rgb(213, 94, 0); stroke-width: 1.5;" />
			
			<!--Drive Service Lines-->
			<line x1="37.5" y1="241.5" x2="37.5" y2="301.5" style="stroke: rgb(213, 94, 0); stroke-width: 1.5;" />
			<line x1="205.5" y1="241.5" x2="205.5" y2="301.5" style="stroke: rgb(213, 94, 0); stroke-width: 1.5;" />
			
			<!--Player-->
			<circle cx="121.5" cy="36" r="24" fill="rgb(0, 158, 115)" />
			
			<!--DTL-->
			<line x1="121.5" y1="60" x2="121.5" y2="474.5" stroke="rgb(0, 158, 115)" stroke-width="1" marker-end="url(#markerArrow)" />
			
			<!--Left Pass-->
			<line x1="121.5" y1="60" x2="61.5" y2="482" stroke="rgb(0, 158, 115)" stroke-width="1" />
			<line x1="61.5" y1="482" x2="5" y2="8.5" stroke="rgb(0, 158, 115)" stroke-width="1" marker-end="url(#markerArrow)" />
			
			<!--Right Pass-->
			<line x1="121.5" y1="60" x2="181.5" y2="482" stroke="rgb(0, 158, 115)" stroke-width="1" />
			<line x1="181.5" y1="482" x2="237" y2="8.5" stroke="rgb(0, 158, 115)" stroke-width="1" marker-end="url(#markerArrow)" />
		</g>
	</g>
</svg>
